<svg width="1165.21" height="858" xmlns="http://www.w3.org/2000/svg" xmlns:xlink="http://www.w3.org/1999/xlink">
 <defs>
  <linearGradient y2="0" x2="0.5" y1="1.00002" x1="0.5" id="f2f4f6e9-6b95-42bc-91e2-935d3f95e99d">
   <stop stop-opacity="0.25" stop-color="gray" offset="0"/>
   <stop stop-opacity="0.12" stop-color="gray" offset="0.54"/>
   <stop stop-opacity="0.1" stop-color="gray" offset="1"/>
  </linearGradient>
  <linearGradient xlink:href="#f2f4f6e9-6b95-42bc-91e2-935d3f95e99d" y2="712.51" x2="725" y1="858" x1="725" id="0828e378-0415-49ac-805e-ffac983dd77f"/>
  <linearGradient xlink:href="#f2f4f6e9-6b95-42bc-91e2-935d3f95e99d" y2="86.79" x2="988.54" y1="104.92" x1="988.54" id="cd7958c8-0c10-490b-9e34-7b85f0d28caa"/>
 </defs>
 <title>floating</title>
 <g>
  <title>Layer 1</title>
  <path id="svg_1" fill="url(#f2f4f6e9-6b95-42bc-91e2-935d3f95e99d)" d="m1003.66,298.87c0,156.23 -130.51,282.87 -269.47,282.87s-281.39,-126.64 -281.39,-282.87s142.43,-282.87 281.39,-282.87s269.47,126.65 269.47,282.87z"/>
  <path id="svg_2" fill="#44337a" d="m990.76,298.87c0,148.91 -124.4,269.63 -256.86,269.63s-268.2,-120.71 -268.2,-269.63s135.75,-269.63 268.21,-269.63s256.85,120.76 256.85,269.63z"/>
  <rect id="svg_18" fill="url(#0828e378-0415-49ac-805e-ffac983dd77f)" height="145.49" width="168.4" y="712.51" x="640.8"/>
  <rect id="svg_19" fill="#f5f5f5" height="137.92" width="159.59" y="712.51" x="645.79"/>
  <line id="svg_20" stroke-width="2" stroke-miterlimit="10" stroke="#ad7676" fill="none" y2="586.48" x2="810.07" y1="712.51" x1="803.41"/>
  <line id="svg_21" stroke-width="2" stroke-miterlimit="10" stroke="#ad7676" fill="none" y2="586.48" x2="640.72" y1="712.51" x1="649.73"/>
  <rect id="svg_34" fill="#44337a" height="20.81" width="59.6" y="577.96" x="692.76"/>
  <g id="svg_35" opacity="0.2">
   <path id="svg_36" d="m733.91,28.3c-3.16,0 -6.31,0.09 -9.47,0.23c128.86,5.56 247.41,124 247.41,269.4s-118.56,263.84 -247.41,269.4c3.16,0.14 6.32,0.23 9.47,0.23c132.45,0 256.86,-120.72 256.86,-269.63s-124.41,-269.63 -256.86,-269.63z"/>
  </g>
  <g id="svg_37" opacity="0.2">
   <path id="svg_38" fill="#fff" d="m480.83,298.87c0,-146.78 131.9,-266.17 262.53,-269.55c-1.89,0 -3.78,-0.08 -5.67,-0.08c-132.45,0 -268.21,120.76 -268.21,269.63s135.76,269.63 268.21,269.63c1.89,0 3.78,0 5.67,-0.08c-130.62,-3.42 -262.53,-122.76 -262.53,-269.55z"/>
  </g>
  <rect id="svg_39" fill="#44337a" height="55.82" width="171.24" y="530.66" x="639.78"/>
  <path id="svg_40" opacity="0.2" fill="#fff" d="m639.77,48.88s-203.4,232.49 0,500l67.17,-0.23s-185.43,-221 -8.51,-516.55l-33.11,7.55l-25.55,9.23z"/>
  <path id="svg_41" opacity="0.2" fill="#fff" d="m816.69,45.33s203.4,236 0,503.54l-67.17,-0.23s185.43,-222.88 8.51,-518.44l33.09,6.61l25.57,8.52z"/>
  <g id="svg_138" opacity="0.2">
   <path id="svg_139" fill="#fff" d="m437.56,77.74a0.83,0.83 0 0 0 0,0.27a0.38,0.38 0 0 0 0,0.1a0.56,0.56 0 0 0 0,-0.37z"/>
   <path id="svg_140" fill="#fff" d="m437.22,76.5a1.63,1.63 0 0 0 0,0.44a1.67,1.67 0 0 0 0,-0.44z"/>
   <path id="svg_141" fill="#fff" d="m439.79,77.15s0,-0.06 0,-0.1l0,0s0,0.05 0,0.1z"/>
  </g>
  <rect id="svg_170" fill="url(#cd7958c8-0c10-490b-9e34-7b85f0d28caa)" height="18.13" width="20.98" y="86.79" x="978.05"/>
  <rect id="svg_171" fill="#e6e6e6" height="17.19" width="19.89" y="86.79" x="978.67"/>
  <line id="svg_172" stroke-width="2" stroke-miterlimit="10" stroke="#ad7676" fill="none" y2="71.08" x2="999.14" y1="86.79" x1="998.31"/>
  <line id="svg_173" stroke-width="2" stroke-miterlimit="10" stroke="#ad7676" fill="none" y2="71.08" x2="978.04" y1="86.79" x1="979.16"/>
  <g id="svg_174" opacity="0.2">
   <path id="svg_175" fill="#fff" d="m983.37,88.27a1.16,1.16 0 0 0 0,0.38a0.54,0.54 0 0 0 0,0.13a0.78,0.78 0 0 0 0,-0.51z"/>
   <path id="svg_176" fill="#fff" d="m982.89,86.55a2.28,2.28 0 0 0 0,0.62a2.33,2.33 0 0 0 0,-0.62z"/>
   <path id="svg_177" fill="#fff" d="m986.49,87.45s0,-0.09 0,-0.13l0,-0.07c0,0.07 0,0.13 0,0.2z"/>
  </g>
  <rect id="svg_178" fill="#ffcc80" height="2.59" width="7.43" y="70.02" x="984.52"/>
  <g id="svg_181" opacity="0.2">
   <path id="svg_182" fill="#fff" d="m958.12,35.25c0,-18.29 16.44,-33.17 32.71,-33.59l-0.71,0c-16.5,0 -33.42,15 -33.42,33.6s16.92,33.6 33.42,33.6l0.71,0c-16.28,-0.45 -32.71,-15.32 -32.71,-33.61z"/>
  </g>
  <rect id="svg_183" fill="#ffcc80" height="6.96" width="21.34" y="64.13" x="977.92"/>
  <path id="svg_184" opacity="0.2" fill="#fff" d="m977.92,4.1s-25.34,29 0,62.3l8.37,0s-23.11,-27.57 -1.07,-64.4l-4.13,0.94l-3.17,1.16z"/>
  <path id="svg_185" opacity="0.2" fill="#fff" d="m999.96,3.65s25.34,29.41 0,62.74l-8.37,0s23.11,-27.77 1.06,-64.6l4.13,0.83l3.18,1.03z"/>
  <g id="svg_192" opacity="0.2">
   <path id="svg_193" fill="#fff" d="m1120.02,98.47a1.23,1.23 0 0 0 0,0.4a0.57,0.57 0 0 0 0,0.14a0.83,0.83 0 0 0 0,-0.54z"/>
   <path id="svg_194" fill="#fff" d="m1119.52,96.64a2.42,2.42 0 0 0 0,0.66a2.48,2.48 0 0 0 0,-0.66z"/>
   <path id="svg_195" fill="#fff" d="m1123.34,97.6s0,-0.1 0,-0.14l0,-0.07c0,0.07 0,0.14 0,0.21z"/>
  </g>
  <line id="svg_209" stroke-width="2" stroke-miterlimit="10" stroke="#ad7676" fill="none" y2="267.2" x2="1049.4" y1="282.05" x1="1050.49"/>
 </g>
</svg>